<?xml version="1.0" encoding="UTF-8"?>
<svg width="40px" height="40px" viewBox="0 0 40 40" version="1.1" xmlns="http://www.w3.org/2000/svg" xmlns:xlink="http://www.w3.org/1999/xlink">
    <!-- Generator: Sketch 51.2 (57519) - http://www.bohemiancoding.com/sketch -->
    <title>linkedin</title>
    <desc>Created with Sketch.</desc>
    <defs></defs>
    <g id="Symbols" stroke="none" stroke-width="1" fill="none" fill-rule="evenodd">
        <g id="Footer" transform="translate(-1367.000000, -75.000000)">
            <g id="footer">
                <g id="social" transform="translate(1367.000000, 75.000000)">
                    <g id="linkedin">
                        <g id="Group-3" fill="#1A237E">
                            <path d="M40,20 C40,31.0456 31.0456,40 20,40 C8.9544,40 0,31.0456 0,20 C0,8.9544 8.9544,0 20,0 C31.0456,0 40,8.9544 40,20" id="Fill-1"></path>
                        </g>
                        <path d="M13.501074,9 C14.8796288,9 16,10.0247332 16,11.2863967 C16,12.5488461 14.8796288,13.5739722 13.501074,13.5739722 C12.1186528,13.5739722 11,12.5488461 11,11.2863967 C11,10.0247332 12.1186528,9 13.501074,9 L13.501074,9 Z M11.3436721,28 L15.6567575,28 L15.6567575,15.3087104 L11.3436721,15.3087104 L11.3436721,28 Z" id="Fill-4" fill="#FFFFFF"></path>
                        <path d="M18,15.3153491 L21.9987542,15.3153491 L21.9987542,17.0487871 L22.054402,17.0487871 C22.6112957,16.0512944 23.9709302,15 25.9991694,15 C30.220515,15 31,17.6272543 31,21.0422922 L31,28 L26.833887,28 L26.833887,21.831254 C26.833887,20.3605413 26.8052326,18.4680543 24.6677741,18.4680543 C22.4983389,18.4680543 22.1652824,20.0707187 22.1652824,21.7248286 L22.1652824,28 L18,28 L18,15.3153491 Z" id="Fill-6" fill="#FFFFFF"></path>
                    </g>
                </g>
            </g>
        </g>
    </g>
</svg>